<svg xmlns="http://www.w3.org/2000/svg" version="1.1" xmlns:xlink="http://www.w3.org/1999/xlink" xmlns:svgjs="http://svgjs.dev/svgjs" width="128" height="128" viewBox="0 0 128 128"><g transform="matrix(0.8046875,0,0,0.8046875,12.41184074821259,12.814873242367177)"><svg viewBox="0 0 98 98" data-background-color="#eef2ff" preserveAspectRatio="xMidYMid meet" height="127" width="128" xmlns="http://www.w3.org/2000/svg" xmlns:xlink="http://www.w3.org/1999/xlink"><g id="tight-bounds" transform="matrix(1,0,0,1,0.08387967645792571,0.08387967645792571)"><svg viewBox="0 0 97.83224064708415 97.83224064708415" height="97.83224064708415" width="97.83224064708415"><g><svg></svg></g><g><svg viewBox="0 0 97.83224064708415 97.83224064708415" height="97.83224064708415" width="97.83224064708415"><g><path d="M0 48.916c0-27.016 21.9-48.916 48.916-48.916 27.016 0 48.916 21.9 48.916 48.916 0 27.016-21.9 48.916-48.916 48.916-27.016 0-48.916-21.9-48.916-48.916zM48.916 93.244c24.481 0 44.328-19.846 44.328-44.328 0-24.481-19.846-44.328-44.328-44.327-24.481 0-44.328 19.846-44.327 44.327 0 24.481 19.846 44.328 44.327 44.328z" data-fill-palette-color="tertiary" fill="#4f46e5" stroke="transparent"></path><ellipse rx="46.95947551060039" ry="46.95947551060039" cx="48.916120323542074" cy="48.916120323542074" fill="#4f46e5" stroke="transparent" stroke-width="0" fill-opacity="1" data-fill-palette-color="tertiary"></ellipse></g><g transform="matrix(1,0,0,1,23.47539391502934,23.47539391502934)"><svg viewBox="0 0 50.88145281702547 50.88145281702547" height="50.88145281702547" width="50.88145281702547"><g><svg viewBox="0 0 50.88145281702547 50.88145281702547" height="50.88145281702547" width="50.88145281702547"><g><svg viewBox="0 0 50.88145281702547 50.88145281702547" height="50.88145281702547" width="50.88145281702547"><g id="textblocktransform"><svg viewBox="0 0 50.88145281702547 50.88145281702547" height="50.88145281702547" width="50.88145281702547" id="textblock"><g><svg viewBox="0 0 50.88145281702547 50.88145281702547" height="50.88145281702547" width="50.88145281702547"><g><svg viewBox="0 0 50.88145281702547 50.88145281702547" height="50.88145281702547" width="50.88145281702547"><g><svg xmlns="http://www.w3.org/2000/svg" xmlns:xlink="http://www.w3.org/1999/xlink" version="1.1" x="0" y="0" viewBox="28.5 30.5 42 42" enable-background="new 0 0 100 100" xml:space="preserve" height="50.88145281702547" width="50.88145281702547" class="icon-icon-0" data-fill-palette-color="quaternary" id="icon-0"><path d="M66.5 30.5H32.5C30.294 30.5 28.5 32.294 28.5 34.5V68.5C28.5 70.706 30.294 72.5 32.5 72.5H66.5C68.705 72.5 70.5 70.706 70.5 68.5V34.5C70.5 32.294 68.705 30.5 66.5 30.5M66.5 46.5H48.5V34.5H66.5zM32.5 34.5H44.5V68.5H32.5zM48.5 68.5V50.5H66.501L66.502 68.5z" fill="#eef2ff" data-fill-palette-color="quaternary"></path></svg></g></svg></g></svg></g></svg></g></svg></g><g></g></svg></g></svg></g></svg></g><defs></defs></svg><rect width="97.83224064708415" height="97.83224064708415" fill="none" stroke="none" visibility="hidden"></rect></g></svg></g></svg>