<svg xmlns="http://www.w3.org/2000/svg" version="1.1" xmlns:xlink="http://www.w3.org/1999/xlink" xmlns:svgjs="http://svgjs.dev/svgjs" width="2000" height="1999" viewBox="0 0 2000 1999"><g transform="matrix(1,0,0,1,-0.431486880466764,-0.4312711370263287)"><svg viewBox="0 0 343 343" data-background-color="#eef2ff" preserveAspectRatio="xMidYMid meet" height="1999" width="2000" xmlns="http://www.w3.org/2000/svg" xmlns:xlink="http://www.w3.org/1999/xlink"><g id="tight-bounds" transform="matrix(1,0,0,1,0.0740000000000407,0.07400000000001228)"><svg viewBox="0 0 342.85155851775386 342.85155851775386" height="342.85155851775386" width="342.85155851775386"><g><svg></svg></g><g><svg viewBox="0 0 342.85155851775386 342.85155851775386" height="342.85155851775386" width="342.85155851775386"><g><path d="M0 171.426c0-94.676 76.75-171.426 171.426-171.426 94.676 0 171.426 76.75 171.426 171.426 0 94.676-76.75 171.426-171.426 171.426-94.676 0-171.426-76.75-171.426-171.426zM171.426 341.52c93.941 0 170.094-76.154 170.094-170.094 0-93.941-76.154-170.094-170.094-170.095-93.941 0-170.094 76.154-170.095 170.095 0 93.941 76.154 170.094 170.095 170.094z" data-fill-palette-color="tertiary" fill="#4f46e5" stroke="transparent"></path><ellipse rx="164.56874808852186" ry="164.56874808852186" cx="171.42577925887693" cy="171.42577925887693" fill="#4f46e5" stroke="transparent" stroke-width="0" fill-opacity="1" data-fill-palette-color="tertiary"></ellipse></g><g transform="matrix(1,0,0,1,64.84655864529837,152.10118254862698)"><svg viewBox="0 0 213.1584412271571 38.64919342049989" height="38.64919342049989" width="213.1584412271571"><g><svg viewBox="0 0 213.1584412271571 38.64919342049989" height="38.64919342049989" width="213.1584412271571"><g><svg viewBox="0 0 213.1584412271571 38.64919342049989" height="38.64919342049989" width="213.1584412271571"><g transform="matrix(1,0,0,1,0,23.886752062609634)"><svg viewBox="0 0 213.1584412271571 14.762441357890255" height="14.762441357890255" width="213.1584412271571"><g id="textblocktransform"><svg viewBox="0 0 213.1584412271571 14.762441357890255" height="14.762441357890255" width="213.1584412271571" id="textblock"><g><svg viewBox="0 0 213.1584412271571 14.762441357890255" height="14.762441357890255" width="213.1584412271571"><g transform="matrix(1,0,0,1,0,0)"><svg width="213.1584412271571" viewBox="0.5 -38.4 570.3 39.5" height="14.762441357890255" data-palette-color="#eef2ff"><path d="M10.25 0.55Q8.15 0.55 6.33-0.1 4.5-0.75 2.3-2.2L2.3-2.2Q2.25-2.25 2.15-2.25L2.15-2.25Q1.95-2.25 1.68-2.02 1.4-1.8 1.25-1.6L1.25-1.6 0.5-2.15 5.2-9.05 6-8.5Q5.7-8.1 5.7-7.6L5.7-7.6Q5.7-7.35 5.85-7.2L5.85-7.2Q7-6.35 7.75-6.1 8.5-5.85 9.7-5.85L9.7-5.85Q11.2-5.85 12.33-7.15 13.45-8.45 13.45-10.75L13.45-10.75 13.45-36Q13.45-36.25 13.05-36.4 12.65-36.55 12.3-36.55L12.3-36.55 12.3-37.5 21.15-37.5 21.15-36.55Q20.8-36.55 20.4-36.4 20-36.25 20-36L20-36 20-10.55Q20-5.2 17.43-2.33 14.85 0.55 10.25 0.55L10.25 0.55ZM41.4 0.95Q37.1 0.95 33.4-1.07 29.7-3.1 26.25-6.65L26.25-6.65Q26.15-6.75 26-6.75L26-6.75Q25.55-6.75 25-6.2L25-6.2 24.35-6.9 31.3-13.45 31.95-12.75Q31.65-12.5 31.4-12.05 31.15-11.6 31.3-11.4L31.3-11.4Q35.95-5.5 41.45-5.5L41.45-5.5Q43.35-5.5 44.87-6.25 46.4-7 47.25-8.18 48.1-9.35 48.1-10.6L48.1-10.6Q48.1-13.55 42.95-15.45L42.95-15.45 36.8-17.75Q33.1-19.1 31.02-21.45 28.95-23.8 28.95-27.1L28.95-27.1Q28.95-30.35 30.47-32.77 32-35.2 34.8-36.5 37.6-37.8 41.3-37.8L41.3-37.8Q44.8-37.8 47.17-36.73 49.55-35.65 52.25-33.45L52.25-33.45Q52.3-33.4 52.45-33.4L52.45-33.4Q52.7-33.4 53.02-33.58 53.35-33.75 53.55-33.95L53.55-33.95 54.2-33.3 48-27.2 47.35-27.9Q47.6-28.15 47.72-28.48 47.85-28.8 47.65-28.95L47.65-28.95Q44.4-31.55 41.2-31.55L41.2-31.55Q38.65-31.55 37.15-30.38 35.65-29.2 35.65-27.4L35.65-27.4Q35.65-25.8 36.47-24.95 37.3-24.1 39-23.5L39-23.5 45.05-21.3Q48.2-20.15 50.3-18.88 52.4-17.6 53.65-15.53 54.9-13.45 54.9-10.35L54.9-10.35Q54.9-7.35 53.32-4.78 51.75-2.2 48.67-0.63 45.6 0.95 41.4 0.95L41.4 0.95ZM78.3 0.8Q72.5 0.8 67.92-1.88 63.34-4.55 60.82-8.97 58.3-13.4 58.3-18.35L58.3-18.35Q58.3-23.35 60.7-27.98 63.09-32.6 67.65-35.5 72.2-38.4 78.3-38.4L78.3-38.4Q84.25-38.4 88.75-35.65 93.25-32.9 95.65-28.33 98.05-23.75 98.05-18.35L98.05-18.35Q98.05-13.55 95.67-9.13 93.3-4.7 88.8-1.95 84.3 0.8 78.3 0.8L78.3 0.8ZM78.34-5.8Q82.09-5.8 85.07-7.38 88.05-8.95 89.72-11.83 91.4-14.7 91.4-18.35L91.4-18.35Q91.4-22.2 89.8-25.25 88.2-28.3 85.2-30.08 82.2-31.85 78.09-31.85L78.09-31.85Q74.34-31.85 71.42-30.08 68.5-28.3 66.84-25.2 65.2-22.1 65.2-18.35L65.2-18.35Q65.2-14.45 67.12-11.6 69.05-8.75 72.07-7.28 75.09-5.8 78.34-5.8L78.34-5.8ZM135.84-37.5L135.84-36.55Q135.49-36.55 135.09-36.4 134.69-36.25 134.69-36L134.69-36 134.69-1.5Q134.69-1.25 135.07-1.1 135.44-0.95 135.79-0.95L135.79-0.95 135.79 0 126.99 0 126.99-0.95Q128.19-0.95 127.74-1.6L127.74-1.6 109.99-26.1 109.99-1.5Q109.99-1.25 110.39-1.1 110.79-0.95 111.19-0.95L111.19-0.95 111.19 0 102.04 0 102.04-0.95Q102.44-0.95 102.84-1.1 103.24-1.25 103.24-1.5L103.24-1.5 103.24-36Q103.24-36.25 102.87-36.4 102.49-36.55 102.14-36.55L102.14-36.55 102.14-37.5 111.19-37.5 111.19-36.55Q109.99-36.55 110.44-35.9L110.44-35.9 128.69-10.6 128.04-36Q128.04-36.25 127.62-36.4 127.19-36.55 126.84-36.55L126.84-36.55 126.84-37.5 135.84-37.5ZM170.79-37.5Q174.74-37.5 177.69-36.05 180.64-34.6 182.21-32.02 183.79-29.45 183.79-26.15L183.79-26.15Q183.79-22.5 182.04-19.98 180.29-17.45 177.44-16.18 174.59-14.9 171.34-14.9L171.34-14.9 162.64-14.9 162.64-1.5Q162.64-1.25 163.04-1.1 163.44-0.95 163.79-0.95L163.79-0.95 163.79 0 154.84 0 154.84-0.95Q155.19-0.95 155.59-1.1 155.99-1.25 155.99-1.5L155.99-1.5 155.99-36Q155.99-36.25 155.61-36.4 155.24-36.55 154.89-36.55L154.89-36.55 154.89-37.5 170.79-37.5ZM162.64-21.25L171.74-21.25Q173.49-21.25 174.84-22.03 176.19-22.8 176.89-24 177.59-25.2 177.59-26.5L177.59-26.5Q177.59-28.45 175.94-29.95 174.29-31.45 171.79-31.45L171.79-31.45 162.64-31.45 162.64-21.25ZM189.24-36Q189.24-36.25 188.86-36.4 188.49-36.55 188.09-36.55L188.09-36.55 188.09-37.5 196.89-37.5 196.89-36.55Q196.49-36.55 196.11-36.4 195.74-36.25 195.74-36L195.74-36 195.74-1.5Q195.74-1.25 196.11-1.1 196.49-0.95 196.89-0.95L196.89-0.95 196.89 0 188.09 0 188.09-0.95Q188.49-0.95 188.86-1.1 189.24-1.25 189.24-1.5L189.24-1.5 189.24-36ZM228.53-23L228.53-22.05Q228.18-22.05 227.81-21.9 227.43-21.75 227.43-21.5L227.43-21.5 227.43-1.5Q227.43-1.25 227.81-1.1 228.18-0.95 228.53-0.95L228.53-0.95 228.53 0 221.13 0 221.13-2.75Q217.98 0.65 213.18 0.65L213.18 0.65Q209.53 0.65 206.76-0.83 203.98-2.3 202.46-5.05 200.93-7.8 200.93-11.45L200.93-11.45Q200.93-15 202.61-17.78 204.28-20.55 207.08-22.08 209.88-23.6 213.18-23.6L213.18-23.6Q217.98-23.6 221.13-19.9L221.13-19.9 221.13-23 228.53-23ZM213.93-4.65Q215.98-4.65 217.61-5.58 219.23-6.5 220.13-8.03 221.03-9.55 221.03-11.3L221.03-11.3Q221.03-14.3 219.06-16.25 217.08-18.2 213.93-18.2L213.93-18.2Q210.88-18.2 208.91-16.3 206.93-14.4 206.93-11.45L206.93-11.45Q206.93-8.35 208.96-6.5 210.98-4.65 213.93-4.65L213.93-4.65ZM244.53 1.05Q241.33 1.05 238.58-0.55 235.83-2.15 234.21-4.9 232.58-7.65 232.58-10.9L232.58-10.9Q232.58-14.75 234.21-17.68 235.83-20.6 238.58-22.18 241.33-23.75 244.63-23.75L244.63-23.75Q246.98-23.75 248.66-23.2 250.33-22.65 251.36-21.88 252.38-21.1 253.93-19.7L253.93-19.7Q254.03-19.6 254.18-19.6L254.18-19.6Q254.38-19.6 254.66-19.75 254.93-19.9 255.08-20.05L255.08-20.05 255.73-19.35 250.33-14.35 249.68-15.05Q249.93-15.25 250.11-15.63 250.28-16 250.13-16.2L250.13-16.2Q248.33-18.4 245.18-18.4L245.18-18.4Q242.33-18.4 240.41-16.5 238.48-14.6 238.48-11.55L238.48-11.55Q238.48-8.4 240.33-6.5 242.18-4.6 245.18-4.6L245.18-4.6Q246.68-4.6 247.63-4.98 248.58-5.35 249.78-6.4L249.78-6.4Q249.88-6.5 249.88-6.65L249.88-6.65Q249.88-6.95 249.53-7.3L249.53-7.3 250.13-8.05 255.53-3.55 254.93-2.85Q254.13-3.3 253.83-3L253.83-3Q251.98-0.95 249.96 0.05 247.93 1.05 244.53 1.05L244.53 1.05ZM270.43-24.05Q274.28-24.05 277.08-22.38 279.88-20.7 281.33-17.85 282.78-15 282.78-11.55L282.78-11.55Q282.78-10.5 282.63-9.45L282.63-9.45 264.33-9.45Q264.53-7.05 266.43-5.7 268.33-4.35 270.98-4.35L270.98-4.35Q272.78-4.35 274-4.85 275.23-5.35 276.18-6.35L276.18-6.35Q276.28-6.55 276.28-6.6L276.28-6.6Q276.28-6.8 276.13-7.03 275.98-7.25 275.83-7.35L275.83-7.35 276.43-8.1 281.98-3.75 281.43-3Q280.68-3.45 280.38-3.1L280.38-3.1Q276.88 1.1 270.98 1.1L270.98 1.1Q267.18 1.1 264.28-0.58 261.38-2.25 259.8-5.08 258.23-7.9 258.23-11.35L258.23-11.35Q258.23-15 259.78-17.9 261.33-20.8 264.1-22.43 266.88-24.05 270.43-24.05L270.43-24.05ZM264.38-14.1L276.78-14.1Q276.58-16.15 274.7-17.57 272.83-19 270.48-19L270.48-19Q268.13-19 266.43-17.57 264.73-16.15 264.38-14.1L264.38-14.1ZM311.38-13.45L311.38-1.5Q311.38-1.25 311.75-1.1 312.13-0.95 312.53-0.95L312.53-0.95 312.53 0 303.73 0 303.73-0.95Q304.13-0.95 304.5-1.1 304.88-1.25 304.88-1.5L304.88-1.5 304.88-11.9Q304.88-14.45 303.63-16.28 302.38-18.1 299.88-18.1L299.88-18.1Q297.33-18.1 295.63-16.4 293.93-14.7 293.93-11.5L293.93-11.5 293.93-1.5Q293.93-1.25 294.3-1.1 294.68-0.95 295.03-0.95L295.03-0.95 295.03 0 286.58 0 286.58-0.95Q286.93-0.95 287.3-1.1 287.68-1.25 287.68-1.5L287.68-1.5 287.68-36Q287.68-36.25 287.3-36.4 286.93-36.55 286.58-36.55L286.58-36.55 286.58-37.5 295.03-37.5 295.03-36.55Q294.68-36.55 294.3-36.4 293.93-36.25 293.93-36L293.93-36 293.93-20.75Q295.23-22 297.1-22.75 298.98-23.5 300.88-23.5L300.88-23.5Q304.13-23.5 306.5-22.15 308.88-20.8 310.13-18.53 311.38-16.25 311.38-13.45L311.38-13.45ZM329.07 0.6Q325.37 0.6 322.55-0.98 319.72-2.55 318.15-5.3 316.57-8.05 316.57-11.5L316.57-11.5Q316.57-14.9 318.15-17.7 319.72-20.5 322.57-22.13 325.42-23.75 329.07-23.75L329.07-23.75Q332.57-23.75 335.42-22.18 338.27-20.6 339.92-17.82 341.57-15.05 341.57-11.5L341.57-11.5Q341.57-8.4 340.1-5.63 338.62-2.85 335.77-1.13 332.92 0.6 329.07 0.6L329.07 0.6ZM329.07-5.15Q332.02-5.15 333.85-6.88 335.67-8.6 335.67-11.35L335.67-11.35Q335.67-14.2 333.85-16.05 332.02-17.9 329.07-17.9L329.07-17.9Q326.32-17.9 324.47-16.07 322.62-14.25 322.62-11.5L322.62-11.5Q322.62-8.6 324.47-6.88 326.32-5.15 329.07-5.15L329.07-5.15ZM346.77-36Q346.77-36.25 346.4-36.4 346.02-36.55 345.62-36.55L345.62-36.55 345.62-37.5 354.42-37.5 354.42-36.55Q354.02-36.55 353.65-36.4 353.27-36.25 353.27-36L353.27-36 353.27-1.5Q353.27-1.25 353.65-1.1 354.02-0.95 354.42-0.95L354.42-0.95 354.42 0 345.62 0 345.62-0.95Q346.02-0.95 346.4-1.1 346.77-1.25 346.77-1.5L346.77-1.5 346.77-36ZM384.47-36L384.47-1.5Q384.47-1.25 384.84-1.1 385.22-0.95 385.57-0.95L385.57-0.95 385.57 0 378.42 0 378.42-1.75Q375.42 0.7 371.27 0.7L371.27 0.7Q367.57 0.7 364.67-0.8 361.77-2.3 360.12-5.05 358.47-7.8 358.47-11.4L358.47-11.4Q358.47-15.05 360.14-17.88 361.82-20.7 364.74-22.28 367.67-23.85 371.27-23.85L371.27-23.85Q375.42-23.85 378.42-21.5L378.42-21.5 378.42-36Q378.42-36.25 378.07-36.4 377.72-36.55 377.37-36.55L377.37-36.55 377.37-37.5 385.52-37.5 385.52-36.55Q385.17-36.55 384.82-36.4 384.47-36.25 384.47-36L384.47-36ZM371.57-4.65Q373.52-4.65 375.14-5.55 376.77-6.45 377.69-7.98 378.62-9.5 378.62-11.2L378.62-11.2Q378.62-14.25 376.64-16.23 374.67-18.2 371.57-18.2L371.57-18.2Q368.47-18.2 366.49-16.28 364.52-14.35 364.52-11.3L364.52-11.3Q364.52-8.25 366.54-6.45 368.57-4.65 371.57-4.65L371.57-4.65ZM402.02-24.05Q405.87-24.05 408.67-22.38 411.47-20.7 412.92-17.85 414.37-15 414.37-11.55L414.37-11.55Q414.37-10.5 414.22-9.45L414.22-9.45 395.92-9.45Q396.12-7.05 398.02-5.7 399.92-4.35 402.57-4.35L402.57-4.35Q404.37-4.35 405.59-4.85 406.82-5.35 407.77-6.35L407.77-6.35Q407.87-6.55 407.87-6.6L407.87-6.6Q407.87-6.8 407.72-7.03 407.57-7.25 407.42-7.35L407.42-7.35 408.02-8.1 413.57-3.75 413.02-3Q412.27-3.45 411.97-3.1L411.97-3.1Q408.47 1.1 402.57 1.1L402.57 1.1Q398.77 1.1 395.87-0.58 392.97-2.25 391.39-5.08 389.82-7.9 389.82-11.35L389.82-11.35Q389.82-15 391.37-17.9 392.92-20.8 395.69-22.43 398.47-24.05 402.02-24.05L402.02-24.05ZM395.97-14.1L408.37-14.1Q408.17-16.15 406.29-17.57 404.42-19 402.07-19L402.07-19Q399.72-19 398.02-17.57 396.32-16.15 395.97-14.1L395.97-14.1ZM432.61-24.5L433.56-24.5 433.56-16.45 432.61-16.45Q432.61-16.8 432.46-17.25 432.31-17.7 432.06-17.75L432.06-17.75 431.71-17.75Q430.16-17.75 428.59-16.88 427.01-16 425.99-14.58 424.96-13.15 424.96-11.55L424.96-11.55 424.96-1.5Q424.96-1.25 425.34-1.1 425.71-0.95 426.06-0.95L426.06-0.95 426.06 0 417.66 0 417.66-0.95Q418.01-0.95 418.39-1.1 418.76-1.25 418.76-1.5L418.76-1.5 418.76-21.5Q418.76-21.75 418.39-21.9 418.01-22.05 417.66-22.05L417.66-22.05 417.66-23 424.96-23 424.96-20.85Q426.31-22.1 428.21-22.85 430.11-23.6 432.01-23.6L432.01-23.6 432.06-23.6 432.11-23.6Q432.36-23.6 432.49-23.9 432.61-24.2 432.61-24.5L432.61-24.5ZM466.76-37.5Q470.71-37.5 473.66-36.05 476.61-34.6 478.18-32.02 479.76-29.45 479.76-26.15L479.76-26.15Q479.76-22.5 478.01-19.98 476.26-17.45 473.41-16.18 470.56-14.9 467.31-14.9L467.31-14.9 458.61-14.9 458.61-1.5Q458.61-1.25 459.01-1.1 459.41-0.95 459.76-0.95L459.76-0.95 459.76 0 450.81 0 450.81-0.95Q451.16-0.95 451.56-1.1 451.96-1.25 451.96-1.5L451.96-1.5 451.96-36Q451.96-36.25 451.58-36.4 451.21-36.55 450.86-36.55L450.86-36.55 450.86-37.5 466.76-37.5ZM458.61-21.25L467.71-21.25Q469.46-21.25 470.81-22.03 472.16-22.8 472.86-24 473.56-25.2 473.56-26.5L473.56-26.5Q473.56-28.45 471.91-29.95 470.26-31.45 467.76-31.45L467.76-31.45 458.61-31.45 458.61-21.25ZM496.01 0.6Q492.31 0.6 489.48-0.98 486.66-2.55 485.08-5.3 483.51-8.05 483.51-11.5L483.51-11.5Q483.51-14.9 485.08-17.7 486.66-20.5 489.51-22.13 492.36-23.75 496.01-23.75L496.01-23.75Q499.51-23.75 502.36-22.18 505.21-20.6 506.86-17.82 508.51-15.05 508.51-11.5L508.51-11.5Q508.51-8.4 507.03-5.63 505.56-2.85 502.71-1.13 499.86 0.6 496.01 0.6L496.01 0.6ZM496.01-5.15Q498.96-5.15 500.78-6.88 502.61-8.6 502.61-11.35L502.61-11.35Q502.61-14.2 500.78-16.05 498.96-17.9 496.01-17.9L496.01-17.9Q493.26-17.9 491.41-16.07 489.56-14.25 489.56-11.5L489.56-11.5Q489.56-8.6 491.41-6.88 493.26-5.15 496.01-5.15L496.01-5.15ZM522.25 0.75Q519.7 0.75 517.33-0.3 514.95-1.35 512.55-3.3L512.55-3.3Q512.45-3.4 512.3-3.4L512.3-3.4Q511.9-3.4 511.45-2.95L511.45-2.95 510.75-3.55 515.75-9.25 516.45-8.6Q516.25-8.35 516.13-8 516-7.65 516.2-7.45L516.2-7.45Q517.85-5.95 519.28-5.23 520.7-4.5 522.25-4.5L522.25-4.5Q526.1-4.5 526.1-7.05L526.1-7.05Q526.1-8.2 524.93-8.83 523.75-9.45 521-10.2L521-10.2Q517.45-11.15 515.85-12.68 514.25-14.2 514.25-16.85L514.25-16.85Q514.25-20 516.3-21.98 518.35-23.95 521.9-23.95L521.9-23.95Q523.7-23.95 525.15-23.4 526.6-22.85 528.65-21.45L528.65-21.45Q528.7-21.4 528.85-21.4L528.85-21.4Q529.1-21.4 529.35-21.55 529.6-21.7 529.7-21.85L529.7-21.85 530.45-21.2 525.95-16.1 525.25-16.7Q525.45-16.9 525.53-17.23 525.6-17.55 525.4-17.75L525.4-17.75Q524.5-18.45 523.68-18.8 522.85-19.15 521.85-19.15L521.85-19.15Q520.8-19.15 520.2-18.75 519.6-18.35 519.6-17.55L519.6-17.55Q519.6-16.9 519.95-16.5 520.3-16.1 521.23-15.7 522.15-15.3 524.05-14.7L524.05-14.7Q527.55-13.65 529.55-11.78 531.55-9.9 531.55-7.15L531.55-7.15Q531.55-3.1 529-1.18 526.45 0.75 522.25 0.75L522.25 0.75ZM547.55-24L548.5-24 548.5-16.4 547.55-16.4Q547.55-16.75 547.4-17.07 547.25-17.4 547-17.4L547-17.4 543.75-17.4 543.75-1.5Q543.75-1.25 544.1-1.1 544.45-0.95 544.8-0.95L544.8-0.95 544.8 0 536.65 0 536.65-0.95Q537-0.95 537.35-1.1 537.7-1.25 537.7-1.5L537.7-1.5 537.7-17.4 535.3-17.4Q535.05-17.4 534.9-17.07 534.75-16.75 534.75-16.4L534.75-16.4 533.8-16.4 533.8-24 534.75-24Q534.75-23.65 534.9-23.33 535.05-23 535.3-23L535.3-23 537.7-23 537.7-28.85Q537.7-29.1 537.35-29.25 537-29.4 536.65-29.4L536.65-29.4 536.65-30.35 544.8-30.35 544.8-29.4Q544.45-29.4 544.1-29.25 543.75-29.1 543.75-28.85L543.75-28.85 543.75-23 547-23Q547.25-23 547.4-23.33 547.55-23.65 547.55-24L547.55-24ZM561.5 0.75Q558.95 0.75 556.57-0.3 554.2-1.35 551.8-3.3L551.8-3.3Q551.7-3.4 551.55-3.4L551.55-3.4Q551.15-3.4 550.7-2.95L550.7-2.95 550-3.55 555-9.25 555.7-8.6Q555.5-8.35 555.37-8 555.25-7.65 555.45-7.45L555.45-7.45Q557.1-5.95 558.52-5.23 559.95-4.5 561.5-4.5L561.5-4.5Q565.35-4.5 565.35-7.05L565.35-7.05Q565.35-8.2 564.17-8.83 563-9.45 560.25-10.2L560.25-10.2Q556.7-11.15 555.1-12.68 553.5-14.2 553.5-16.85L553.5-16.85Q553.5-20 555.55-21.98 557.6-23.95 561.15-23.95L561.15-23.95Q562.95-23.95 564.4-23.4 565.85-22.85 567.9-21.45L567.9-21.45Q567.95-21.4 568.1-21.4L568.1-21.4Q568.35-21.4 568.6-21.55 568.85-21.7 568.95-21.85L568.95-21.85 569.7-21.2 565.2-16.1 564.5-16.7Q564.7-16.9 564.77-17.23 564.85-17.55 564.65-17.75L564.65-17.75Q563.75-18.45 562.92-18.8 562.1-19.15 561.1-19.15L561.1-19.15Q560.05-19.15 559.45-18.75 558.85-18.35 558.85-17.55L558.85-17.55Q558.85-16.9 559.2-16.5 559.55-16.1 560.47-15.7 561.4-15.3 563.3-14.7L563.3-14.7Q566.8-13.65 568.8-11.78 570.8-9.9 570.8-7.15L570.8-7.15Q570.8-3.1 568.25-1.18 565.7 0.75 561.5 0.75L561.5 0.75Z" opacity="1" transform="matrix(1,0,0,1,0,0)" fill="#eef2ff" class="wordmark-text-0" data-fill-palette-color="quaternary" id="text-0"></path></svg></g></svg></g></svg></g></svg></g><g transform="matrix(1,0,0,1,96.37837363527639,0)"><svg viewBox="0 0 20.401693956604333 20.401693956604333" height="20.401693956604333" width="20.401693956604333"><g><svg xmlns="http://www.w3.org/2000/svg" xmlns:xlink="http://www.w3.org/1999/xlink" version="1.1" x="0" y="0" viewBox="28.5 30.5 42 42" enable-background="new 0 0 100 100" xml:space="preserve" height="20.401693956604333" width="20.401693956604333" class="icon-icon-0" data-fill-palette-color="quaternary" id="icon-0"><path d="M66.5 30.5H32.5C30.294 30.5 28.5 32.294 28.5 34.5V68.5C28.5 70.706 30.294 72.5 32.5 72.5H66.5C68.705 72.5 70.5 70.706 70.5 68.5V34.5C70.5 32.294 68.705 30.5 66.5 30.5M66.5 46.5H48.5V34.5H66.5zM32.5 34.5H44.5V68.5H32.5zM48.5 68.5V50.5H66.501L66.502 68.5z" fill="#eef2ff" data-fill-palette-color="quaternary"></path></svg></g></svg></g><g></g></svg></g></svg></g></svg></g></svg></g><defs></defs></svg><rect width="342.85155851775386" height="342.85155851775386" fill="none" stroke="none" visibility="hidden"></rect></g></svg></g></svg>